<?xml version="1.0" encoding="UTF-8" standalone="no"?>
<!DOCTYPE svg PUBLIC "-//W3C//DTD SVG 1.1//EN" "http://www.w3.org/Graphics/SVG/1.1/DTD/svg11.dtd">
<svg width="100%" height="100%" viewBox="0 0 1772 1772" version="1.1" xmlns="http://www.w3.org/2000/svg" xmlns:xlink="http://www.w3.org/1999/xlink" xml:space="preserve" xmlns:serif="http://www.serif.com/" style="fill-rule:evenodd;clip-rule:evenodd;stroke-linejoin:round;stroke-miterlimit:2;">
    <g transform="matrix(1,0,0,1,-38887.6,-11147.9)">
        <g id="MeasureUp-Logo" serif:id="MeasureUp Logo" transform="matrix(0.823112,0,0,0.823112,11811.4,5226.76)">
            <rect x="32894.9" y="7193.55" width="2152.39" height="2152.39" style="fill:none;"/>
            <g transform="matrix(1.32316,0,0,1.32316,-16018.9,-7830.14)">
                <path d="M37295,11866.5C37313,11860.9 37327.7,11847.8 37335.4,11830.6C37410.8,11662.8 37582.6,11545.2 37783,11545.2C37874.1,11545.2 37959.3,11569.5 38032.3,11611.8C38048.3,11621.1 38067.5,11623.2 38085.2,11617.6C38146.8,11598.2 38285.8,11554.5 38285.8,11554.5C38317.2,11544.6 38350.6,11562 38360.5,11593.4L38508.6,12063.6C38518.5,12094.9 38501,12128.4 38469.7,12138.3C38469.7,12138.3 38348.1,12176.6 38295.4,12193.2C38281.2,12197.6 38271.5,12210.8 38271.5,12225.7C38271.5,12333.2 38271.5,12749.9 38271.5,12749.9C38271.5,12776.7 38260.7,12802.5 38241.1,12821.4C38222.4,12839.7 38197,12850 38170.4,12850L37395.5,12850C37369,12850 37343.6,12839.7 37324.8,12821.4C37305.2,12802.5 37294.4,12776.7 37294.4,12749.9L37294.4,12524.6C37294.4,12520.8 37292.6,12517.3 37289.6,12515C37286.5,12512.8 37282.6,12512.1 37279,12513.3C37259.4,12519.4 37228.4,12529.2 37228.4,12529.2C37197,12539.1 37163.5,12521.7 37153.7,12490.3L37005.6,12020.1C36995.7,11988.7 37013.1,11955.3 37044.5,11945.4C37044.5,11945.4 37223.2,11889.1 37295,11866.5ZM38144.5,11824.9C38084.1,11720.5 37957,11617.3 37783,11616C37614.7,11614.7 37490.5,11709 37420.9,11825.4C37385.4,11884.9 37365.6,11972.5 37365.3,12021.4C37364.6,12121.8 37365.3,12749.9 37365.3,12749.9C37365.3,12757.7 37368.4,12765.1 37374.1,12770.6C37379.8,12776.1 37387.5,12779.2 37395.5,12779.2L37624.4,12779.2C37644,12779.2 37659.8,12763.3 37659.8,12743.8C37659.8,12632.5 37659.8,12297.5 37659.8,12297.5C37659.8,12281.8 37647.1,12269 37631.3,12269L37565.8,12269C37554.8,12269 37544.7,12262.7 37540,12252.7C37535.3,12242.7 37536.8,12230.9 37543.8,12222.4C37602.7,12150.6 37713.8,12015.1 37760.9,11957.6C37766.3,11951 37774.4,11947.2 37783,11947.2C37791.5,11947.2 37799.6,11951 37805,11957.6C37852.1,12015.1 37963.3,12150.6 38022.2,12222.4C38029.2,12230.9 38030.6,12242.7 38025.9,12252.7C38021.2,12262.7 38011.1,12269 38000.1,12269C37977.6,12269 37953,12269 37934.6,12269C37927,12269 37919.8,12272 37914.4,12277.4C37909.1,12282.7 37906.1,12290 37906.1,12297.5C37906.1,12297.5 37906.1,12632.5 37906.1,12743.8C37906.1,12763.3 37921.9,12779.2 37941.5,12779.2C38013.6,12779.2 38170.4,12779.2 38170.4,12779.2C38178.4,12779.2 38186.1,12776.1 38191.8,12770.6C38197.5,12765.1 38200.7,12757.7 38200.7,12749.9C38200.7,12749.9 38201,12172.3 38200.7,12021.4C38200.5,11972.6 38183.3,11892 38144.5,11824.9Z" style="fill:white;"/>
            </g>
        </g>
    </g>
</svg>
